<svg height="512" viewBox="0 0 128 128" width="512" xmlns="http://www.w3.org/2000/svg"><g><path d="m68.568 73.1h-.059a33.368 33.368 0 0 0 27-44.031l-7.931-22.763h-47.156l-7.927 22.758a33.368 33.368 0 0 0 27 44.031h-.059v41.191l-19.589 7.408h48.31l-19.589-7.408z" fill="#dcf2f7"/><path d="m39.443 31.443a26 26 0 0 0 24.557 34.557 26 26 0 0 0 24.557-34.557l-1.024-2.938s-10.439 9.55-23.533 2.938a27.229 27.229 0 0 0 -24.557 0z" fill="#fa163f"/><g fill="#022625"><path d="m59.433 103.523a1.75 1.75 0 0 0 1.75-1.75v-4.5a1.75 1.75 0 0 0 -3.5 0v4.5a1.749 1.749 0 0 0 1.75 1.75z"/><path d="m92.621 60.377a34.717 34.717 0 0 0 4.537-31.889l-7.928-22.757a1.75 1.75 0 0 0 -1.652-1.174h-47.156a1.75 1.75 0 0 0 -1.652 1.174l-7.928 22.757a35.14 35.14 0 0 0 26.841 46.112v14.018a1.75 1.75 0 0 0 3.5 0v-13.591c.931.073 1.869.122 2.817.122s1.886-.049 2.817-.122v39.259a1.75 1.75 0 0 0 1.131 1.636l10.634 4.021h-29.164l10.634-4.021a1.75 1.75 0 0 0 1.131-1.636v-4.275a1.75 1.75 0 0 0 -3.5 0v3.066l-18.459 6.98a1.75 1.75 0 0 0 .619 3.386h48.314a1.75 1.75 0 0 0 .619-3.386l-18.459-6.98v-38.477a34.654 34.654 0 0 0 22.304-14.223zm-54.389-2.028a31.252 31.252 0 0 1 -4.084-28.709l7.518-21.583h44.668l7.518 21.583a31.611 31.611 0 0 1 -55.62 28.709z"/><path d="m90.209 30.868-1.023-2.939a1.75 1.75 0 0 0 -2.834-.715c-.1.087-9.684 8.665-21.563 2.667a28.786 28.786 0 0 0 -26.22.046 1.749 1.749 0 0 0 -.778.941 27.753 27.753 0 0 0 48.832 25.206 27.436 27.436 0 0 0 3.586-25.206zm-26.209 33.383a24.255 24.255 0 0 1 -23.12-31.585 25.353 25.353 0 0 1 22.331.339c10.519 5.311 19.554.9 23.453-1.677l.24.691a24.254 24.254 0 0 1 -22.904 32.232z"/><path d="m70.917 15.891h10.195a1.75 1.75 0 0 0 0-3.5h-10.195a1.75 1.75 0 0 0 0 3.5z"/><path d="m58.662 15.891h4.5a1.75 1.75 0 0 0 0-3.5h-4.5a1.75 1.75 0 0 0 0 3.5z"/></g></g></svg>