<?xml version="1.0" encoding="utf-8"?>
<!-- Generator: Adobe Illustrator 24.1.3, SVG Export Plug-In . SVG Version: 6.00 Build 0)  -->
<svg version="1.1" id="Capa_1" xmlns="http://www.w3.org/2000/svg" xmlns:xlink="http://www.w3.org/1999/xlink" x="0px" y="0px"
	 viewBox="0 0 512 512" style="enable-background:new 0 0 512 512;" xml:space="preserve">
<style type="text/css">
	.st0{fill:#FFBE00;}
</style>
<g id="XMLID_1159_">
	<g id="XMLID_2123_">
		<path id="XMLID_2121_" class="st0" d="M189.4,153.6l40-124.4c8.2-25.5,44.3-25.5,52.5-0.1l40.4,124.5h131.4
			c26.7,0,37.9,34.2,16.2,49.9l-106.1,76.9l40.7,124.1c8.3,25.4-20.8,46.7-42.4,30.9l-105.7-76.8l-106,77.3
			c-21.6,15.8-50.8-5.4-42.5-30.9l40.7-124.8L42.2,203.5c-21.7-15.7-10.6-50,16.2-50L189.4,153.6z"/>
		<g id="XMLID_2119_">
			<path id="XMLID_871_" d="M134.1,451.4c-7.7,0-15.4-2.4-22.1-7.3c-13.4-9.8-18.8-26.3-13.7-42.1l38.4-117.8L36.3,211.6
				c-13.5-9.7-18.9-26.2-13.8-42s19.2-26,35.8-26h123.8l37.8-117.5C225,10.3,239,0,255.6,0h0c16.6,0,30.6,10.2,35.8,26l38.1,117.6
				H343c5.5,0,10,4.5,10,10s-4.5,10-10,10h-20.7c-4.3,0-8.2-2.8-9.5-6.9L272.4,32.2c-2.9-9-10.5-12.2-16.7-12.2c0,0,0,0,0,0
				c-6.2,0-13.8,3.2-16.7,12.2l-40,124.4c-1.3,4.1-5.2,6.9-9.5,6.9H58.3c-9.4,0-14.8,6.3-16.7,12.2c-1.9,5.9-1.2,14.2,6.4,19.7
				l106.4,76.8c3.5,2.5,5,7.1,3.7,11.2l-40.7,124.8c-2.9,9,1.4,16.1,6.4,19.7c5,3.6,13.1,5.5,20.7,0l106-77.3
				c3.5-2.6,8.3-2.6,11.8,0L368,427.4c7.6,5.5,15.7,3.6,20.7,0c5-3.6,9.3-10.7,6.4-19.7l-40.7-124.1c-1.4-4.1,0.1-8.7,3.6-11.2
				L464,195.4c7.6-5.5,8.3-13.8,6.4-19.7s-7.3-12.2-16.7-12.2H433c-5.5,0-10-4.5-10-10s4.5-10,10-10h20.7c16.6,0,30.6,10.2,35.8,26
				c5.1,15.8-0.3,32.3-13.7,42l-100.2,72.6L414,401.4c5.2,15.8-0.2,32.3-13.6,42.1c-13.4,9.8-30.8,9.8-44.2,0L256.4,371l-100.2,73
				C149.5,448.9,141.8,451.4,134.1,451.4L134.1,451.4z"/>
		</g>
		<g id="XMLID_2151_">
			<path id="XMLID_856_" d="M256,512c-5.5,0-10-4.5-10-10v-80.9c0-5.5,4.5-10,10-10c5.5,0,10,4.5,10,10V502
				C266,507.5,261.5,512,256,512z"/>
		</g>
		<g id="XMLID_2150_">
			<path id="XMLID_855_" d="M499.9,334.8c-1,0-2.1-0.2-3.1-0.5l-76.9-25c-5.3-1.7-8.1-7.3-6.4-12.6c1.7-5.3,7.3-8.1,12.6-6.4
				l76.9,25c5.3,1.7,8.1,7.3,6.4,12.6C508.1,332.1,504.1,334.8,499.9,334.8z"/>
		</g>
		<g id="XMLID_2152_">
			<path id="XMLID_854_" d="M359.2,113.4c-2,0-4.1-0.6-5.9-1.9c-4.5-3.2-5.5-9.5-2.2-14l47.5-65.4c3.2-4.5,9.5-5.5,14-2.2
				c4.5,3.2,5.5,9.5,2.2,14l-47.5,65.4C365.4,112,362.3,113.4,359.2,113.4z"/>
		</g>
		<g id="XMLID_2154_">
			<path id="XMLID_853_" d="M152.8,113.4c-3.1,0-6.1-1.4-8.1-4.1L97.2,43.9c-3.2-4.5-2.3-10.7,2.2-14c4.5-3.2,10.7-2.3,14,2.2
				l47.5,65.4c3.2,4.5,2.3,10.7-2.2,14C156.9,112.8,154.8,113.4,152.8,113.4z"/>
		</g>
		<g id="XMLID_2156_">
			<path id="XMLID_852_" d="M12.1,334.8c-4.2,0-8.1-2.7-9.5-6.9C0.9,322.6,3.7,317,9,315.3l76.9-25c5.3-1.7,10.9,1.2,12.6,6.4
				c1.7,5.3-1.2,10.9-6.4,12.6l-76.9,25C14.1,334.6,13.1,334.8,12.1,334.8z"/>
		</g>
	</g>
	<g id="XMLID_1847_">
		<g id="XMLID_1848_">
			<path id="XMLID_851_" d="M388,163.6c-2.6,0-5.2-1.1-7.1-2.9c-1.9-1.9-2.9-4.4-2.9-7.1s1.1-5.2,2.9-7.1c1.9-1.9,4.4-2.9,7.1-2.9
				c2.6,0,5.2,1.1,7.1,2.9c1.9,1.9,2.9,4.4,2.9,7.1s-1.1,5.2-2.9,7.1S390.6,163.6,388,163.6z"/>
		</g>
	</g>
</g>
</svg>
