<?xml version="1.0" encoding="utf-8"?>
<!-- Generator: Adobe Illustrator 24.1.3, SVG Export Plug-In . SVG Version: 6.00 Build 0)  -->
<svg version="1.1" id="Capa_1" xmlns="http://www.w3.org/2000/svg" xmlns:xlink="http://www.w3.org/1999/xlink" x="0px" y="0px"
	 viewBox="0 0 512 512" style="enable-background:new 0 0 512 512;" xml:space="preserve">
<style type="text/css">
	.st0{fill-rule:evenodd;clip-rule:evenodd;fill:#F8B449;}
	.st1{fill-rule:evenodd;clip-rule:evenodd;fill:#FF872C;}
	.st2{fill-rule:evenodd;clip-rule:evenodd;fill:#E4E8ED;}
	.st3{fill-rule:evenodd;clip-rule:evenodd;fill:#C8D1DA;}
	.st4{fill:#FFFFFF;}
</style>
<g>
	<g>
		<g>
			<path class="st0" d="M117.2,346.9l16.3-241.8c1.1-16.5,13.5-30,30-30H96.1c-16.5,0-28.2,13.6-30,30L38.8,346.9H117.2z"/>
			<path class="st0" d="M393.4,346.9l-16.3-241.8c-1.1-16.5-13.5-30-30-30c-19.9,0-39.9,0-59.8,0c15.9,0.7,28.7,13.9,28.7,30v241.8
				L393.4,346.9L393.4,346.9z M196,346.9V105.1c0-16.1,12.8-29.3,28.7-30l-61.2,0c-16.8,0-28.9,13.8-30,30l-16.3,241.8L196,346.9
				L196,346.9z"/>
			<path class="st1" d="M196,346.9V105.1c0-16.1,12.8-29.3,28.7-30l-32.2,0c-7.1,8-11.5,18.5-11.5,30v226.8h-62.8l-1,15H196z"/>
			<path class="st0" d="M316,346.9V105.1c0-16.5-13.5-30-30-30h-60c-16.5,0-30,13.5-30,30v241.8L316,346.9L316,346.9z"/>
			<path class="st1" d="M316,346.9v-15h-97.5V105.1c0-16.5,13.5-30,30-30H226c-16.5,0-30,13.5-30,30v241.8
				C236,346.9,276,346.9,316,346.9z"/>
			<path class="st1" d="M319.5,75.1c-10.7,0-21.5,0-32.2,0c15.9,0.7,28.7,13.9,28.7,30v241.8h77.4l-1-15H331V105.1
				C331,93.6,326.6,83.1,319.5,75.1L319.5,75.1z"/>
			<path class="st0" d="M471.8,346.9l-27.2-241.8c-1.8-16.4-13.5-30-30-30h-67.5c16.5,0,28.9,13.5,30,30l16.3,241.8L471.8,346.9
				L471.8,346.9z"/>
			<path class="st1" d="M380.1,75.1h-33c16.5,0,28.9,13.5,30,30l16.3,241.8h78.4l-1.7-15h-62.7L392,104.1
				C391.3,93.1,387,82.9,380.1,75.1z"/>
			<path class="st2" d="M7.5,346.9v30h497v-30C338.8,346.9,173.2,346.9,7.5,346.9z"/>
			<path class="st2" d="M487.8,376.9H24.2l13.3,60h437L487.8,376.9z"/>
			<path class="st3" d="M7.5,346.9H30v30H7.5V346.9z"/>
			<path class="st3" d="M24.2,376.9l13.3,60H60l-10-45h434.5l3.3-15C333.3,376.9,178.7,376.9,24.2,376.9L24.2,376.9z"/>
			<path class="st1" d="M126.1,75.1h-30c-16.5,0-28.2,13.6-30,30L38.8,346.9h78.4l16.3-241.8c1.1-16.5,13.5-30,30-30h-33
				c-6.9,7.8-11.2,17.9-11.9,29l-15.4,227.8H70.5l25.5-226.8C97.9,88.7,109.6,75.1,126.1,75.1L126.1,75.1z"/>
		</g>
		<g>
			<path class="st4" d="M157.3,324.4h-15v-15h15V324.4z M80.6,324.4h-15v-15h15V324.4z M293.5,179.8h-15v-44.7h15V179.8z
				 M355.1,120.2h-15v-15h15V120.2z M293.5,120.2h-15v-15h15V120.2z M422.1,120.1h-15v-15h15V120.1z"/>
		</g>
		<g>
			<path class="st4" d="M456,414.4h-45v-15h45V414.4z M396,414.4h-15v-15h15V414.4z"/>
		</g>
	</g>
	<g>
		<path d="M73.5,105.9c1.3-11.2,8.9-23.3,22.5-23.3h22.5v-15H96.1C76.7,67.6,61,83,58.6,104.3l-11.1,98.5l14.9,1.7L73.5,105.9z"/>
		<path d="M34,323.6l11.9-105.9l14.9,1.7L48.9,325.3L34,323.6z"/>
		<path d="M126.2,324.9L141,105.6c0.9-13.1,10.6-23,22.5-23h0l17.4,0l0-15l-17.5,0c0,0,0,0,0,0c-19.9,0-36,15.9-37.5,37l-14.8,219.3
			L126.2,324.9z"/>
		<path d="M203.5,105.1c0-12.4,10.1-22.5,22.5-22.5h22.5v-15H226c-20.7,0-37.5,16.8-37.5,37.5v98.4h15V105.1z"/>
		<path d="M188.5,218.5h15v105.9h-15V218.5z"/>
		<path d="M308.5,105.1v219.3h15V105.1c0-20.7-16.8-37.5-37.5-37.5h-22.5v15H286C298.4,82.6,308.5,92.7,308.5,105.1z"/>
		<path d="M437.1,105.9l24.7,219.3l14.9-1.7L452,104.3c-2.4-21.2-18.1-36.7-37.5-36.7h-22.5v15h22.5
			C428.3,82.6,435.9,94.7,437.1,105.9z"/>
		<path d="M347.1,82.6L347.1,82.6c12,0,21.6,9.9,22.5,23l6.6,98.4l15-1l-6.6-98.4c-1.4-21.1-17.5-37-37.5-37c0,0,0,0,0,0l-16.1,0
			l0,15L347.1,82.6z"/>
		<path d="M377.3,219.2l15-1l7.1,105.9l-15,1L377.3,219.2z"/>
		<path d="M0,339.4v45h248.5v-15H15v-15h482v15H263.5v15H512v-45H0z"/>
		<path d="M36.5,397.8L21.8,401l9.6,43.4H90v-15H43.5L36.5,397.8z"/>
		<path d="M468.5,429.4H105v15h375.5l9.6-43.4l-14.6-3.3L468.5,429.4z"/>
	</g>
</g>
</svg>
